<?xml version="1.0"?>
<!-- Uploaded to: SVG Repo, www.svgrepo.com, Generator: SVG Repo Mixer Tools -->
<svg fill="#ffffff" height="800px" width="800px" version="1.1" id="Layer_1" xmlns="http://www.w3.org/2000/svg" xmlns:xlink="http://www.w3.org/1999/xlink" 
	 viewBox="0 0 330 330" xml:space="preserve">
<path id="XMLID_9_" d="M 165 0 C 74.019 0 0 74.019 0 165 C 0 255.981 74.019 330 165 330 C 255.981 330 330 255.981 330 165 C 330 74.019 255.981 0 165 0 Z M 255.606 205.606 C 252.678 208.535 248.839 210 245 210 C 241.161 210 237.322 208.536 234.394 205.606 L 164.998 136.213 L 95.606 205.606 C 89.749 211.464 80.251 211.464 74.393 205.606 C 68.535 199.749 68.535 190.251 74.393 184.393 L 154.391 104.393 C 157.204 101.58 161.019 99.999 164.997 99.999 C 168.976 99.999 172.79 101.579 175.604 104.393 L 255.606 184.393 C 261.465 190.251 261.465 199.749 255.606 205.606 Z" transform="matrix(-1, 0, 0, -1, 330.000001, 330.000001)" />
</svg>